<svg width="122" height="105" viewBox="0 0 122 105" fill="none" xmlns="http://www.w3.org/2000/svg">
<g filter="url(#filter0_f_2804_496)">
<path d="M77.1891 41.9682C76.3398 39.2571 74.0051 36.5932 70.4358 34.2654C67.0551 32.0585 62.756 30.264 58.0024 29.0724C56.2496 28.6335 54.6692 28.4446 53.3044 28.514C51.5096 28.6043 49.9929 29.1404 48.795 30.1085C47.6826 31.0071 46.8496 32.2474 46.2486 33.9001C45.1335 36.964 44.9897 41.0974 45.0005 45.1071C45.0087 48.2043 45.3288 50.8668 45.9488 53.0238C46.5824 55.2252 47.5496 56.9696 48.8249 58.2071C50.5193 59.8529 52.7387 60.6196 55.4235 60.4849C56.2917 60.4404 57.2223 60.3002 58.1896 60.0668C61.0019 59.3891 64.2781 57.9835 67.416 56.1113C70.7071 54.1474 73.5737 51.8113 75.4865 49.5349C77.4265 47.2238 78.0166 44.6071 77.1891 41.9682ZM63.8481 43.7154L63.9552 43.8946C64.0624 44.0279 64.2428 44.2515 63.9023 44.8529C63.4641 45.6252 62.4182 46.4918 61.1728 47.114C60.2137 47.5932 59.2464 47.8793 58.4501 47.9196C58.2072 47.9321 57.9848 47.921 57.7894 47.8863C57.1057 47.7654 56.9849 47.4099 56.9252 47.0863C56.5345 44.9488 56.5033 43.6043 56.7964 41.3321C56.8248 41.114 56.8778 40.7057 57.9088 40.7071C59.2342 40.7071 61.086 41.4613 62.6258 42.6307C63.0721 42.9668 63.4818 43.3321 63.8481 43.7154ZM71.7517 46.4793C71.7979 48.7085 70.0424 51.2043 66.5315 53.896C63.5103 55.7266 60.2774 57.1377 57.6605 57.7696C56.8289 57.9696 56.038 58.0904 55.3095 58.1266C53.2502 58.2307 51.6493 57.6974 50.4121 56.4946C48.3677 54.5071 47.3217 50.6738 47.3068 45.1002C47.2959 41.314 47.4221 37.4363 48.4097 34.7238C49.3322 32.1876 50.8774 31.0001 53.4184 30.871C54.5606 30.814 55.9186 30.9793 57.4557 31.364C61.9664 32.4946 66.0268 34.1863 69.1986 36.2543C72.308 38.2821 74.313 40.5071 74.9954 42.6876C75.4146 44.0252 75.3061 45.3335 74.6753 46.5918C74.5206 46.8988 74.0648 46.7863 74.058 46.4404V46.4279C73.9997 43.6557 72.2578 41.1182 68.7346 38.6738C67.9247 38.1113 65.0093 36.1668 61.5133 34.7543C58.0974 33.3737 55.3733 33.0224 53.4604 33.7168C52.0536 34.2265 51.0728 35.3015 50.621 36.8251C49.8464 39.4363 49.4828 42.5946 49.6239 45.489C49.7351 47.7779 50.2073 50.9696 51.8271 53.1765C52.9598 54.7196 54.4928 55.5224 56.2591 55.5002C57.9183 55.4779 59.8867 55.0932 61.6585 54.4446C63.1358 53.9043 65.183 52.9182 66.5545 51.296C67.6697 49.9752 68.1499 48.4307 67.9424 46.8279C67.6547 44.6085 66.2561 42.4446 64.0027 40.7349C62.0614 39.2613 59.7267 38.346 57.9115 38.3474C56 38.3474 54.7302 39.3501 54.5145 41.0251C54.1889 43.5529 54.2242 45.1321 54.6624 47.5238C54.9324 48.996 55.9051 49.9515 57.4014 50.2154C58.7309 50.4488 60.4742 50.0932 62.1862 49.239C63.4058 48.6307 64.4626 47.8404 65.206 46.9974C65.3526 46.8307 65.6266 46.9127 65.6551 47.1349C65.6551 47.1363 65.6551 47.139 65.6564 47.1404C65.7785 48.0807 65.5018 48.9363 64.8099 49.7543C63.0572 51.8279 59.0701 53.1057 56.2306 53.1418C55.1996 53.1557 54.3626 52.7029 53.6707 51.7613C51.9342 49.396 51.1189 43.2765 52.8282 37.514C53.0684 36.7043 53.5147 36.2057 54.231 35.946C55.5903 35.4529 57.8165 35.8015 60.6682 36.9543C63.9444 38.2779 66.6821 40.1043 67.4431 40.6321C70.3002 42.6126 71.711 44.5265 71.7517 46.4793Z" fill="url(#paint0_linear_2804_496)"/>
</g>
<path d="M77.1891 41.9682C76.3398 39.2571 74.0051 36.5932 70.4358 34.2654C67.0551 32.0585 62.756 30.264 58.0024 29.0724C56.2496 28.6335 54.6692 28.4446 53.3044 28.514C51.5096 28.6043 49.9929 29.1404 48.795 30.1085C47.6826 31.0071 46.8496 32.2474 46.2486 33.9001C45.1335 36.964 44.9897 41.0974 45.0005 45.1071C45.0087 48.2043 45.3288 50.8668 45.9488 53.0238C46.5824 55.2252 47.5496 56.9696 48.8249 58.2071C50.5193 59.8529 52.7387 60.6196 55.4235 60.4849C56.2917 60.4404 57.2223 60.3002 58.1896 60.0668C61.0019 59.3891 64.2781 57.9835 67.416 56.1113C70.7071 54.1474 73.5737 51.8113 75.4865 49.5349C77.4265 47.2238 78.0166 44.6071 77.1891 41.9682ZM63.8481 43.7154L63.9552 43.8946C64.0624 44.0279 64.2428 44.2515 63.9023 44.8529C63.4641 45.6252 62.4182 46.4918 61.1728 47.114C60.2137 47.5932 59.2464 47.8793 58.4501 47.9196C58.2072 47.9321 57.9848 47.921 57.7894 47.8863C57.1057 47.7654 56.9849 47.4099 56.9252 47.0863C56.5345 44.9488 56.5033 43.6043 56.7964 41.3321C56.8248 41.114 56.8778 40.7057 57.9088 40.7071C59.2342 40.7071 61.086 41.4613 62.6258 42.6307C63.0721 42.9668 63.4818 43.3321 63.8481 43.7154ZM71.7517 46.4793C71.7979 48.7085 70.0424 51.2043 66.5315 53.896C63.5103 55.7266 60.2774 57.1377 57.6605 57.7696C56.8289 57.9696 56.038 58.0904 55.3095 58.1266C53.2502 58.2307 51.6493 57.6974 50.4121 56.4946C48.3677 54.5071 47.3217 50.6738 47.3068 45.1002C47.2959 41.314 47.4221 37.4363 48.4097 34.7238C49.3322 32.1876 50.8774 31.0001 53.4184 30.871C54.5606 30.814 55.9186 30.9793 57.4557 31.364C61.9664 32.4946 66.0268 34.1863 69.1986 36.2543C72.308 38.2821 74.313 40.5071 74.9954 42.6876C75.4146 44.0252 75.3061 45.3335 74.6753 46.5918C74.5206 46.8988 74.0648 46.7863 74.058 46.4404V46.4279C73.9997 43.6557 72.2578 41.1182 68.7346 38.6738C67.9247 38.1113 65.0093 36.1668 61.5133 34.7543C58.0974 33.3737 55.3733 33.0224 53.4604 33.7168C52.0536 34.2265 51.0728 35.3015 50.621 36.8251C49.8464 39.4363 49.4828 42.5946 49.6239 45.489C49.7351 47.7779 50.2073 50.9696 51.8271 53.1765C52.9598 54.7196 54.4928 55.5224 56.2591 55.5002C57.9183 55.4779 59.8867 55.0932 61.6585 54.4446C63.1358 53.9043 65.183 52.9182 66.5545 51.296C67.6697 49.9752 68.1499 48.4307 67.9424 46.8279C67.6547 44.6085 66.2561 42.4446 64.0027 40.7349C62.0614 39.2613 59.7267 38.346 57.9115 38.3474C56 38.3474 54.7302 39.3501 54.5145 41.0251C54.1889 43.5529 54.2242 45.1321 54.6624 47.5238C54.9324 48.996 55.9051 49.9515 57.4014 50.2154C58.7309 50.4488 60.4742 50.0932 62.1862 49.239C63.4058 48.6307 64.4626 47.8404 65.206 46.9974C65.3526 46.8307 65.6266 46.9127 65.6551 47.1349C65.6551 47.1363 65.6551 47.139 65.6564 47.1404C65.7785 48.0807 65.5018 48.9363 64.8099 49.7543C63.0572 51.8279 59.0701 53.1057 56.2306 53.1418C55.1996 53.1557 54.3626 52.7029 53.6707 51.7613C51.9342 49.396 51.1189 43.2765 52.8282 37.514C53.0684 36.7043 53.5147 36.2057 54.231 35.946C55.5903 35.4529 57.8165 35.8015 60.6682 36.9543C63.9444 38.2779 66.6821 40.1043 67.4431 40.6321C70.3002 42.6126 71.711 44.5265 71.7517 46.4793Z" fill="url(#paint1_linear_2804_496)"/>
<defs>
<filter id="filter0_f_2804_496" x="0.604553" y="-15.8954" width="121.346" height="120.791" filterUnits="userSpaceOnUse" color-interpolation-filters="sRGB">
<feFlood flood-opacity="0" result="BackgroundImageFix"/>
<feBlend mode="normal" in="SourceGraphic" in2="BackgroundImageFix" result="shape"/>
<feGaussianBlur stdDeviation="22.1977" result="effect1_foregroundBlur_2804_496"/>
</filter>
<linearGradient id="paint0_linear_2804_496" x1="109.304" y1="36.8333" x2="24.2842" y2="41.8962" gradientUnits="userSpaceOnUse">
<stop stop-color="#8AABFF"/>
<stop offset="0.226712" stop-color="#C30AE1"/>
<stop offset="0.489583" stop-color="#6E62F3"/>
<stop offset="0.744792" stop-color="#F3627C"/>
<stop offset="1" stop-color="#F36297"/>
</linearGradient>
<linearGradient id="paint1_linear_2804_496" x1="109.304" y1="36.8333" x2="24.2842" y2="41.8962" gradientUnits="userSpaceOnUse">
<stop stop-color="#579AFF"/>
<stop offset="0.226712" stop-color="#DE41F8"/>
<stop offset="0.489583" stop-color="#6557FF"/>
<stop offset="0.744792" stop-color="#FF4567"/>
<stop offset="1" stop-color="#F36297"/>
</linearGradient>
</defs>
</svg>
